<svg id="in" width="38" height="42" viewBox="0 0 38 42" fill="none" xmlns="http://www.w3.org/2000/svg">
<g filter="url(#filter0_d_228_25)">
<path d="M31.705 3.5H6.29497C6.00933 3.49603 5.72572 3.54837 5.46031 3.65402C5.19491 3.75968 4.95292 3.91658 4.74816 4.11576C4.5434 4.31495 4.37989 4.55252 4.26695 4.81491C4.15402 5.0773 4.09388 5.35936 4.08997 5.645V31.355C4.09388 31.6406 4.15402 31.9227 4.26695 32.1851C4.37989 32.4475 4.5434 32.685 4.74816 32.8842C4.95292 33.0834 5.19491 33.2403 5.46031 33.346C5.72572 33.4516 6.00933 33.504 6.29497 33.5H31.705C31.9906 33.504 32.2742 33.4516 32.5396 33.346C32.805 33.2403 33.047 33.0834 33.2518 32.8842C33.4565 32.685 33.62 32.4475 33.733 32.1851C33.8459 31.9227 33.9061 31.6406 33.91 31.355V5.645C33.9061 5.35936 33.8459 5.0773 33.733 4.81491C33.62 4.55252 33.4565 4.31495 33.2518 4.11576C33.047 3.91658 32.805 3.75968 32.5396 3.65402C32.2742 3.54837 31.9906 3.49603 31.705 3.5ZM13.135 28.61H8.63497V15.11H13.135V28.61ZM10.885 13.22C10.2644 13.22 9.66917 12.9735 9.23034 12.5346C8.7915 12.0958 8.54497 11.5006 8.54497 10.88C8.54497 10.2594 8.7915 9.6642 9.23034 9.22537C9.66917 8.78653 10.2644 8.54 10.885 8.54C11.2145 8.50262 11.5482 8.53528 11.8643 8.63582C12.1803 8.73636 12.4716 8.90253 12.719 9.12344C12.9663 9.34435 13.1643 9.61501 13.2998 9.91772C13.4353 10.2204 13.5053 10.5483 13.5053 10.88C13.5053 11.2117 13.4353 11.5396 13.2998 11.8423C13.1643 12.145 12.9663 12.4156 12.719 12.6366C12.4716 12.8575 12.1803 13.0236 11.8643 13.1242C11.5482 13.2247 11.2145 13.2574 10.885 13.22ZM29.365 28.61H24.865V21.365C24.865 19.55 24.22 18.365 22.585 18.365C22.079 18.3687 21.5862 18.5274 21.1732 18.8198C20.7602 19.1121 20.4467 19.524 20.275 20C20.1576 20.3526 20.1067 20.7239 20.125 21.095V28.595H15.625C15.625 28.595 15.625 16.325 15.625 15.095H20.125V17C20.5338 16.2907 21.1283 15.7063 21.8446 15.3098C22.5609 14.9133 23.3718 14.7198 24.19 14.75C27.19 14.75 29.365 16.685 29.365 20.84V28.61Z" fill="#A3ABB2"/>
</g>
<defs>
<filter id="filter0_d_228_25" x="-3" y="0.5" width="44" height="44" filterUnits="userSpaceOnUse" color-interpolation-filters="sRGB">
<feFlood flood-opacity="0" result="BackgroundImageFix"/>
<feColorMatrix in="SourceAlpha" type="matrix" values="0 0 0 0 0 0 0 0 0 0 0 0 0 0 0 0 0 0 127 0" result="hardAlpha"/>
<feOffset dy="4"/>
<feGaussianBlur stdDeviation="2"/>
<feComposite in2="hardAlpha" operator="out"/>
<feColorMatrix type="matrix" values="0 0 0 0 0 0 0 0 0 0 0 0 0 0 0 0 0 0 0.25 0"/>
<feBlend mode="normal" in2="BackgroundImageFix" result="effect1_dropShadow_228_25"/>
<feBlend mode="normal" in="SourceGraphic" in2="effect1_dropShadow_228_25" result="shape"/>
</filter>
</defs>
</svg>
